<mxfile host="app.diagrams.net" modified="2023-07-18T14:06:35.419Z" agent="Mozilla/5.0 (Windows NT 10.0; Win64; x64) AppleWebKit/537.36 (KHTML, like Gecko) Chrome/114.0.0.0 Safari/537.36" etag="tdcKWObUmGxRk--AXi4u" version="21.6.1" type="github">
  <diagram name="Page-1" id="pa2RsK-ee-q4RJ8g3-NK">
    <mxGraphModel dx="1290" dy="581" grid="1" gridSize="10" guides="1" tooltips="1" connect="1" arrows="1" fold="1" page="1" pageScale="1" pageWidth="827" pageHeight="1169" math="0" shadow="0">
      <root>
        <mxCell id="0" />
        <mxCell id="1" parent="0" />
        <mxCell id="WcAqCY-glhIl445MiRE2-1" value="AWS Cloud" style="points=[[0,0],[0.25,0],[0.5,0],[0.75,0],[1,0],[1,0.25],[1,0.5],[1,0.75],[1,1],[0.75,1],[0.5,1],[0.25,1],[0,1],[0,0.75],[0,0.5],[0,0.25]];outlineConnect=0;gradientColor=none;html=1;whiteSpace=wrap;fontSize=12;fontStyle=0;container=1;pointerEvents=0;collapsible=0;recursiveResize=0;shape=mxgraph.aws4.group;grIcon=mxgraph.aws4.group_aws_cloud_alt;strokeColor=#232F3E;fillColor=none;verticalAlign=top;align=left;spacingLeft=30;fontColor=#232F3E;dashed=0;" vertex="1" parent="1">
          <mxGeometry x="230" y="120" width="830" height="580" as="geometry" />
        </mxCell>
        <mxCell id="WcAqCY-glhIl445MiRE2-2" value="VPC" style="points=[[0,0],[0.25,0],[0.5,0],[0.75,0],[1,0],[1,0.25],[1,0.5],[1,0.75],[1,1],[0.75,1],[0.5,1],[0.25,1],[0,1],[0,0.75],[0,0.5],[0,0.25]];outlineConnect=0;gradientColor=none;html=1;whiteSpace=wrap;fontSize=12;fontStyle=0;container=1;pointerEvents=0;collapsible=0;recursiveResize=0;shape=mxgraph.aws4.group;grIcon=mxgraph.aws4.group_vpc;strokeColor=#248814;fillColor=none;verticalAlign=top;align=left;spacingLeft=30;fontColor=#AAB7B8;dashed=0;" vertex="1" parent="WcAqCY-glhIl445MiRE2-1">
          <mxGeometry x="70" y="25" width="740" height="530" as="geometry" />
        </mxCell>
        <mxCell id="WcAqCY-glhIl445MiRE2-6" value="" style="rounded=0;whiteSpace=wrap;html=1;" vertex="1" parent="WcAqCY-glhIl445MiRE2-2">
          <mxGeometry x="50" y="25" width="670" height="125" as="geometry" />
        </mxCell>
        <mxCell id="WcAqCY-glhIl445MiRE2-3" value="" style="sketch=0;points=[[0,0,0],[0.25,0,0],[0.5,0,0],[0.75,0,0],[1,0,0],[0,1,0],[0.25,1,0],[0.5,1,0],[0.75,1,0],[1,1,0],[0,0.25,0],[0,0.5,0],[0,0.75,0],[1,0.25,0],[1,0.5,0],[1,0.75,0]];outlineConnect=0;fontColor=#232F3E;gradientColor=#F78E04;gradientDirection=north;fillColor=#D05C17;strokeColor=#ffffff;dashed=0;verticalLabelPosition=bottom;verticalAlign=top;align=center;html=1;fontSize=12;fontStyle=0;aspect=fixed;shape=mxgraph.aws4.resourceIcon;resIcon=mxgraph.aws4.eks;" vertex="1" parent="WcAqCY-glhIl445MiRE2-2">
          <mxGeometry x="339.25" y="35" width="61.5" height="61.5" as="geometry" />
        </mxCell>
        <mxCell id="WcAqCY-glhIl445MiRE2-4" value="Availability zone" style="sketch=0;outlineConnect=0;gradientColor=none;html=1;whiteSpace=wrap;fontSize=12;fontStyle=0;shape=mxgraph.aws4.group;grIcon=mxgraph.aws4.group_availability_zone;strokeColor=#545B64;fillColor=none;verticalAlign=top;align=left;spacingLeft=30;fontColor=#545B64;dashed=1;" vertex="1" parent="WcAqCY-glhIl445MiRE2-2">
          <mxGeometry x="60" y="230" width="270" height="275" as="geometry" />
        </mxCell>
        <mxCell id="WcAqCY-glhIl445MiRE2-5" value="Availability zone" style="sketch=0;outlineConnect=0;gradientColor=none;html=1;whiteSpace=wrap;fontSize=12;fontStyle=0;shape=mxgraph.aws4.group;grIcon=mxgraph.aws4.group_availability_zone;strokeColor=#545B64;fillColor=none;verticalAlign=top;align=left;spacingLeft=30;fontColor=#545B64;dashed=1;" vertex="1" parent="WcAqCY-glhIl445MiRE2-2">
          <mxGeometry x="409" y="230" width="270" height="275" as="geometry" />
        </mxCell>
        <mxCell id="WcAqCY-glhIl445MiRE2-7" value="&lt;b&gt;&lt;font style=&quot;font-size: 18px;&quot;&gt;EKS Control Plane&lt;/font&gt;&lt;/b&gt;" style="rounded=0;whiteSpace=wrap;html=1;" vertex="1" parent="WcAqCY-glhIl445MiRE2-2">
          <mxGeometry x="270" y="105" width="209" height="40" as="geometry" />
        </mxCell>
        <mxCell id="WcAqCY-glhIl445MiRE2-15" value="" style="sketch=0;html=1;dashed=0;whitespace=wrap;fillColor=#2875E2;strokeColor=#ffffff;points=[[0.005,0.63,0],[0.1,0.2,0],[0.9,0.2,0],[0.5,0,0],[0.995,0.63,0],[0.72,0.99,0],[0.5,1,0],[0.28,0.99,0]];verticalLabelPosition=bottom;align=center;verticalAlign=top;shape=mxgraph.kubernetes.icon;prIcon=node" vertex="1" parent="WcAqCY-glhIl445MiRE2-2">
          <mxGeometry x="145" y="335" width="100" height="125" as="geometry" />
        </mxCell>
        <mxCell id="WcAqCY-glhIl445MiRE2-23" value="" style="sketch=0;html=1;dashed=0;whitespace=wrap;fillColor=#2875E2;strokeColor=#ffffff;points=[[0.005,0.63,0],[0.1,0.2,0],[0.9,0.2,0],[0.5,0,0],[0.995,0.63,0],[0.72,0.99,0],[0.5,1,0],[0.28,0.99,0]];verticalLabelPosition=bottom;align=center;verticalAlign=top;shape=mxgraph.kubernetes.icon;prIcon=node" vertex="1" parent="WcAqCY-glhIl445MiRE2-2">
          <mxGeometry x="494" y="335" width="100" height="125" as="geometry" />
        </mxCell>
        <mxCell id="WcAqCY-glhIl445MiRE2-26" value="Auto Scaling group" style="points=[[0,0],[0.25,0],[0.5,0],[0.75,0],[1,0],[1,0.25],[1,0.5],[1,0.75],[1,1],[0.75,1],[0.5,1],[0.25,1],[0,1],[0,0.75],[0,0.5],[0,0.25]];outlineConnect=0;gradientColor=none;html=1;whiteSpace=wrap;fontSize=12;fontStyle=0;container=1;pointerEvents=0;collapsible=0;recursiveResize=0;shape=mxgraph.aws4.groupCenter;grIcon=mxgraph.aws4.group_auto_scaling_group;grStroke=1;strokeColor=#D86613;fillColor=none;verticalAlign=top;align=center;fontColor=#D86613;dashed=1;spacingTop=25;" vertex="1" parent="WcAqCY-glhIl445MiRE2-2">
          <mxGeometry x="34" y="280" width="666" height="180" as="geometry" />
        </mxCell>
        <mxCell id="WcAqCY-glhIl445MiRE2-38" value="" style="line;strokeWidth=4;direction=south;html=1;perimeter=backbonePerimeter;points=[];outlineConnect=0;" vertex="1" parent="WcAqCY-glhIl445MiRE2-26">
          <mxGeometry x="505" y="-80" width="10" height="160" as="geometry" />
        </mxCell>
        <mxCell id="WcAqCY-glhIl445MiRE2-33" value="" style="line;strokeWidth=4;html=1;perimeter=backbonePerimeter;points=[];outlineConnect=0;" vertex="1" parent="WcAqCY-glhIl445MiRE2-2">
          <mxGeometry x="190" y="200" width="360" height="10" as="geometry" />
        </mxCell>
        <mxCell id="WcAqCY-glhIl445MiRE2-35" value="" style="line;strokeWidth=4;direction=south;html=1;perimeter=backbonePerimeter;points=[];outlineConnect=0;" vertex="1" parent="WcAqCY-glhIl445MiRE2-2">
          <mxGeometry x="365" y="150" width="10" height="60" as="geometry" />
        </mxCell>
        <mxCell id="WcAqCY-glhIl445MiRE2-37" value="" style="line;strokeWidth=4;direction=south;html=1;perimeter=backbonePerimeter;points=[];outlineConnect=0;" vertex="1" parent="WcAqCY-glhIl445MiRE2-2">
          <mxGeometry x="190" y="200" width="10" height="160" as="geometry" />
        </mxCell>
      </root>
    </mxGraphModel>
  </diagram>
</mxfile>
